<svg id="Layer_1" data-name="Layer 1" xmlns="http://www.w3.org/2000/svg" viewBox="0 0 2600 1560"><defs><style>.cls-1{fill:#94c83d;}.cls-2{fill:#09743b;}.cls-3{fill:#4cbfee;}.cls-4{fill:#28246c;}.cls-5{fill:#fff;}</style></defs><rect class="cls-1" y="0.57" width="2600" height="390"/><rect class="cls-2" y="390.57" width="2600" height="390"/><rect class="cls-3" y="780.57" width="2600" height="390"/><rect class="cls-4" y="1170.57" width="2600" height="390"/><path class="cls-5" d="M1875.85,600.34c23.15,6.27,46.36,16.83,66.2,34.31-19.51,74-63,147.53-128.41,212.92l-103.57,100-97,93.75L1302.23,1341.6l-310.8-300.23c22.89-10.46,46-22,68.94-34.12l241.86,233.63,241.86-233.63L1639,915.58l123.87-119.66C1823.45,735.18,1862.21,667.49,1875.85,600.34ZM735.7,471.72c13.77-39.86,38.59-76.24,74-107.27,56.27-49.53,112.78-73.61,172.74-73.61,144.26,0,262.5,141.85,263.54,143.12l56,68.69,56.31-68.52c1.18-1.43,119.44-143.29,263.69-143.29,60,0,116.46,24.08,172.86,73.72,35.33,30.95,60.12,67.31,73.88,107.16a339.69,339.69,0,0,1,80.54,22.57c-11.71-67.85-46.53-131.52-106.68-184.21C1766.17,242.78,1691,218.4,1622,218.4c-181.87,0-319.79,169.91-319.79,169.91S1164.32,218.39,982.43,218.4c-68.92,0-144.16,24.4-220.59,91.68-60.16,52.7-95,116.36-106.69,184.21-7.86,45.58-5.23,93,7.25,140.35,19.51,74,63,147.54,128.41,212.93l103.57,100c22-8.56,46-19.49,71.1-32L841.6,795.92c-60.6-60.74-99.36-128.43-113-195.59a265.29,265.29,0,0,1-5.43-61.55A228.07,228.07,0,0,1,735.7,471.72Zm1244.73,73.16c-40.33-27.27-88-42-136.16-46.81-12.12-1.21-24.28-1.83-36.36-1.83s-21.32.63-26.44,1.12c-135.82,3.47-410,190.19-464,227.89L1300,737.4l-17.43-12.15c-54-37.7-328.24-224.42-464-227.89-5.14-.47-14.38-1.12-26.44-1.12s-24.25.62-36.37,1.83a199.31,199.31,0,0,0-5.83,41.67,230.88,230.88,0,0,0,.75,26.25,292,292,0,0,1,41.41-3,207.55,207.55,0,0,1,22.63,1c113.88,0,397.26,193.57,427,214.07L1239,780l2.69,1.87c-17.44,12-122.45,83.8-229.21,141C968.23,946.54,923.76,967.64,885,981c-26.89,9.29-51.06,14.91-70.31,14.91a207.32,207.32,0,0,1-22.63,1c-59.42,0-215.41-18.9-215.41-217,0-73.37,21.42-122.11,51.38-154.46a368.65,368.65,0,0,1-8.5-80.66C555.53,588.16,509.94,663,509.94,780c0,209.2,145.75,283.76,282.17,283.76,12.09,0,21.3-.63,26.44-1.09,33.22-.86,74.75-12.72,119.28-30.64,40.53-16.31,83.55-37.64,125.15-60.39,99.54-54.43,190.81-116.81,219.59-136.89L1300,822.57l17.43,12.18c28.78,20.08,120,82.45,219.58,136.89l50.51-48.79c-106.75-57.17-211.76-128.93-229.21-141L1361,780l-2.69-1.87c29.71-20.52,313.07-214.07,427-214.07a208,208,0,0,1,22.63-1,292.15,292.15,0,0,1,41.43,3c38.45,5.56,86.67,20.75,122.6,59.55,30,32.35,51.38,81.09,51.38,154.46,0,198.09-156,217-215.43,217a207.32,207.32,0,0,1-22.63-1c-19.25,0-43.41-5.62-70.31-14.91l-52.78,51c44.54,17.93,86.07,29.79,119.3,30.65,5.12.46,14.36,1.09,26.44,1.09,136.38,0,282.15-74.56,282.15-283.76C2090.06,663,2044.47,588.16,1980.43,544.88Z"/></svg>